# xmcd
#
# Track frame offsets: 
#        150
#        16862
#        35665
#        50152
#
# Disc length: 892 seconds
#
# Revision: 0
# Processed by: cddbd v1.5.2PL0 Copyright (c) Steve Scherf et al.
# Submitted via: ExactAudioCopyFreeDBPlugin 1.0
#
DISCID=2e037a04
DTITLE=パスピエ - フィーバー
DYEAR=2013
DGENRE=Pop
TTITLE0=フィーバー
TTITLE1=マグネティック
TTITLE2=Eccentric Person Come Back to Me
TTITLE3=アンドロメダ
EXTD=
EXTT0=
EXTT1=
EXTT2=
EXTT3=
PLAYORDER=
